<?xml version="1.0" encoding="utf-8"?>
<!-- Generator: Adobe Illustrator 24.0.0, SVG Export Plug-In . SVG Version: 6.00 Build 0)  -->
<svg version="1.1" id="Layer_1" xmlns="http://www.w3.org/2000/svg" xmlns:xlink="http://www.w3.org/1999/xlink" x="0px" y="0px"
	 viewBox="0 0 500 161.6" style="enable-background:new 0 0 500 161.6;" xml:space="preserve">
<path d="M72.7,5.2C68.9,1.7,64.3,0,59,0L0.5,0c0,0,5,0.8,10,4.5c1.3,1,2.3,2.3,3.1,3.7c1.9,3.1,3,6.4,3,9.9l0.3,123.7
	c0,3.5-1.3,8-3.1,11.1c-0.8,1.4-2.1,3-3.4,4.1C6.1,160.9,0,161.6,0,161.6s62.3-0.2,62.9-0.3c3.7-0.6,7-2.3,9.8-4.8
	c3.8-3.4,5.7-7.4,5.8-12.1c0,0,0-0.1,0-0.1v-1.2V17.4C78.5,12.7,76.5,8.6,72.7,5.2z M60.2,135.3c0,6.2-4.1,9.3-11.8,9.3H34v-128
	h17.2h0c1.9,0,3.6,0.3,5.1,1c2.4,1.1,4,3,4,5.7V135.3z"/>
<path d="M283.7,5.2C279.8,1.7,275.3,0,270,0l-58.5,0c0,0,5,0.8,10,4.5c1.3,1,2.3,2.3,3.1,3.7c1.9,3.1,3,6.4,3,9.9l0.3,123.7
	c0,3.5-1.3,8-3.1,11.1c-0.8,1.4-2.1,3-3.4,4.1c-4.3,3.8-10.4,4.5-10.4,4.5s62.3-0.2,62.9-0.3c3.7-0.6,7-2.3,9.8-4.8
	c3.8-3.4,5.7-7.4,5.8-12.1c0,0,0-0.1,0-0.1v-1.2V17.4C289.4,12.7,287.5,8.6,283.7,5.2z M271.2,135.3c0,6.2-4.1,9.3-11.8,9.3H245
	v-128h17.2c5,0,9,2.3,9,6.7V135.3z"/>
<path d="M494.2,5.2c-3.8-3.4-8.4-5.1-13.7-5.1l-58.5,0c0,0,5,0.8,10,4.5c1.3,1,2.3,2.3,3.1,3.7c1.9,3.1,3,6.4,3,9.9l0.3,123.7
	c0,3.5-1.3,8-3.1,11.1c-0.8,1.4-2.1,3-3.4,4.1c-4.3,3.8-10.4,4.5-10.4,4.5s60.4,0,61-0.1c0.6-0.1,1.3-0.1,1.9-0.2
	c3.7-0.6,7-2.3,9.8-4.8c3.8-3.4,5.7-7.4,5.8-12.1c0,0,0-0.1,0-0.1v-1.2V17.4C500,12.7,498.1,8.6,494.2,5.2z M470,144.5h-14.4v-128
	h17.2c2.2,0,4.2,0.4,5.7,1.3c2,1.1,3.3,2.9,3.3,5.4v112.1C481.8,141.5,477.6,144.5,470,144.5z"/>
<path d="M425.2,17.4v126.8c0,0,0,0.1,0,0.1c0,4.7-2,8.7-5.8,12.1c-2.9,2.6-6.1,4.2-9.8,4.8c-0.6,0.1-1.2,0.2-1.9,0.2
	c0,0-0.3,0-0.8,0l0-138.3c0-2.5-1.3-4.3-3.3-5.4c-1.6-0.9-3.6-1.3-5.7-1.3h-17.2v145.1c0,0,0,0,0,0c-5.9,0-11.9,0-17.3,0L363.4,0
	l42.3,0c5.3,0,9.9,1.7,13.7,5.1C423.3,8.6,425.2,12.7,425.2,17.4z"/>
<path d="M143,14.9V0L76.5,0c6,1.2,10.1,3.8,13.1,8.2c1.7,2.4,2.2,5.3,2.4,7.3v130.4c-0.2,2-0.7,4.8-2.4,7.3c-3,4.3-7.1,7-13.1,8.2
	l66.5,0v-14.9h-33.2V88.1h27.7V73.2h-27.7V14.9H143z"/>
<path d="M320.8,88.1h27.7V73.2h-27.7V14.9H354V0l-66.5,0c6,1.2,10.1,3.8,13.1,8.2c1.7,2.4,2.2,5.2,2.4,7.2v130.5
	c-0.2,2-0.7,4.8-2.4,7.2c-3,4.3-7.1,7-13.1,8.2l66.5,0v-14.9h-33.2V88.1z"/>
<path d="M208.4,5.2C204.6,1.7,200,0,194.7,0l-42.3,0l0.1,161.6c5.3,0,11.4,0,17.3,0c0,0,0,0,0,0V88.1H196l0,73.4c0.5,0,0.7,0,0.8,0
	c0.6-0.1,1.3-0.1,1.9-0.2c3.7-0.6,7-2.3,9.8-4.8c3.8-3.4,5.7-7.4,5.8-12.1c0,0,0-0.1,0-0.1V17.4C214.2,12.7,212.3,8.6,208.4,5.2z
	 M169.7,73.2V16.5h17.2c2.2,0,4.2,0.4,5.7,1.3c2,1.1,3.3,2.9,3.3,5.4l0,50H169.7z"/>
</svg>
